<svg viewBox="0 0 132.29102 132.29102" fill="none" xmlns="http://www.w3.org/2000/svg">
  <defs>
    <linearGradient id="grad" x1="0%" y1="0%" x2="100%" y2="100%">
      <stop offset="0%" stop-color="#44d62c"/>
      <stop offset="100%" stop-color="#2ea318"/>
    </linearGradient>
  </defs>
  <!-- Curly braces -->
  <path
     d="m 2.2061275,71.089242 v -9.280644 h 0.8313372 c 5.6905405,0 8.5358113,-3.123132 8.5358113,-9.369396 V 33.790286 c 0,-11.002112 6.216305,-17.247627 18.648916,-18.736544 v 9.369395 c -6.245514,0.495806 -9.368272,3.61819 -9.368272,9.367149 v 18.648916 c 0,5.429157 -2.11579,10.098875 -6.347372,14.009156 4.231582,3.940239 6.347372,8.609958 6.347372,14.009156 V 99.10643 c 0,5.80813 3.123132,8.93126 9.369396,9.3694 v 9.36827 C 17.790704,116.4136 11.574399,110.16808 11.574399,99.107554 V 80.458637 c 0,-6.246263 -2.8460186,-9.369395 -8.5380577,-9.369395 z M 130.08489,61.808598 v 9.280644 h -0.83133 c -5.69205,0 -8.53806,3.123132 -8.53806,9.369395 v 18.648917 c 0,11.032066 -6.2163,17.277576 -18.64892,18.736546 v -9.3694 c 6.24626,-0.52427 9.3694,-3.64665 9.3694,-9.367146 V 80.458637 c 0,-5.399947 2.08657,-10.069665 6.25974,-14.009156 -4.17391,-3.940238 -6.26087,-8.609957 -6.26087,-14.009155 V 33.791409 c 0,-5.778917 -3.12276,-8.902049 -9.36827,-9.369395 v -9.367149 c 12.43262,1.430499 18.64892,7.676015 18.64892,18.736544 v 18.648917 c 0,6.246263 2.84601,9.369395 8.53806,9.369395 z"
     fill="url(#grad)" stroke="url(#grad)" stroke-width="2"/>
  <!-- Server rack -->
  <path
     fill="url(#grad)" opacity="0.7"
     d="M 36.488034 31.424802 L 36.488034 48.263485 L 53.448156 48.382857 L 74.689133 48.29449 L 95.932693 48.208708 L 95.932693 31.424802 L 66.211656 31.424802 L 36.488034 31.424802 z M 36.488034 48.263485 L 36.48545 48.263485 L 36.48545 48.268652 L 36.488034 48.268652 L 36.488034 48.263485 z M 40.818498 36.064806 L 45.251797 36.064806 L 45.251797 43.404374 L 40.818498 43.404374 L 40.818498 36.064806 z M 47.470772 36.064806 L 51.906139 36.064806 L 51.906139 43.406957 L 47.472839 43.406957 L 47.470772 36.064806 z M 54.125114 36.064806 L 58.56048 36.064806 L 58.56048 43.406957 L 54.125114 43.406957 L 54.125114 36.064806 z M 88.215373 38.214535 L 91.735554 38.214535 L 91.735554 41.731616 L 88.215373 41.731616 L 88.215373 38.214535 z M 62.998431 39.072359 L 63.111085 39.072359 L 82.838983 39.072359 L 82.959905 39.072359 L 82.959905 40.799894 L 62.996364 40.799894 L 62.998431 39.072359 z M 36.488034 57.610155 L 36.488034 74.739259 L 36.490101 74.739259 L 36.497335 74.741842 L 95.932693 74.741842 L 95.932693 57.61739 L 74.598699 57.61739 L 36.488034 57.610155 z M 40.818498 62.738499 L 45.251797 62.738499 L 45.251797 70.080651 L 40.818498 70.080651 L 40.818498 62.738499 z M 47.470772 62.738499 L 51.906139 62.738499 L 51.906139 70.080651 L 47.472839 70.080651 L 47.470772 62.738499 z M 54.125114 62.738499 L 58.56048 62.738499 L 58.56048 70.080651 L 54.125114 70.080651 L 54.125114 62.738499 z M 88.215373 64.887712 L 91.735554 64.887712 L 91.735554 68.405309 L 88.215373 68.405309 L 88.215373 64.887712 z M 62.998431 65.74812 L 82.959905 65.74812 L 82.959905 67.473588 L 62.996364 67.473588 L 62.998431 65.74812 z M 36.492685 83.978443 L 36.488034 83.981027 L 36.488034 100.9365 L 95.932693 100.9365 L 95.932693 84.150008 L 74.691717 84.064225 L 36.492685 83.978443 z M 40.818498 88.828252 L 45.251797 88.828252 L 45.251797 96.16782 L 40.818498 96.16782 L 40.818498 88.828252 z M 47.470772 88.828252 L 51.906139 88.828252 L 51.906139 96.16782 L 47.472839 96.16782 L 47.470772 88.828252 z M 54.125114 88.828252 L 58.56048 88.828252 L 58.56048 96.16782 L 54.125114 96.16782 L 54.125114 88.828252 z M 88.215373 90.975398 L 91.735554 90.975398 L 91.735554 94.495062 L 88.215373 94.495062 L 88.215373 90.975398 z M 62.998431 91.837873 L 82.959905 91.837873 L 82.959905 93.563341 L 62.996364 93.563341 L 62.998431 91.837873 z"/>
  <!-- Blinking lights -->
  <path
     d="m 607.333,209.167 v -2.834 H 613 V 212 h -5.667 z m 0,44.166 v -2.666 H 613 V 256 h -5.667 z m 0,43.167 v -2.833 H 613 v 5.666 h -5.667 z"
     fill="#ffffff" stroke="#ffffff" stroke-width="4.18959"
     transform="matrix(0.60392467,0,0,0.60392467,-278.50906,-86.344886)">
     <animate attributeName="opacity" values="1;0.2;1" dur="1s" repeatCount="indefinite" />
  </path>
</svg>
